<svg xmlns="http://www.w3.org/2000/svg" width="1440" height="900" viewBox="0 0 1440 900">
  <defs>
    <style>
      :root{--bg:#ffffff;--fg:#0b1220;--muted:#6b7280;--border:#e5e7eb;--panel:#f3f4f6;--card:#ffffff;--pill:#f9fafb}
      .bg{fill:var(--panel)}
      .frame{fill:var(--bg)}
      .panel{fill:var(--panel);stroke:var(--border);stroke-width:1}
      .card{fill:var(--card);stroke:var(--border);stroke-width:1}
      .pill{fill:var(--pill);stroke:var(--border);stroke-width:1}
      .t{font-family:ui-sans-serif,system-ui,-apple-system,Segoe UI,Roboto,Arial;fill:var(--fg)}
      .h1{font-size:18px;font-weight:800}
      .h2{font-size:14px;font-weight:700}
      .m{font-size:12px;fill:var(--muted)}
      .num{font-variant-numeric:tabular-nums}
    </style>
  </defs>

  <rect class="bg" x="0" y="0" width="1440" height="900"/>

  <rect class="frame" x="18" y="18" width="1404" height="864" rx="28"/>

  <rect class="card" x="42" y="38" width="1356" height="62" rx="24"/>
  <text class="t h1" x="72" y="74">SwapPilot</text>
  <text class="t m" x="72" y="94">Model 08 — Soft Rounded</text>
  <rect class="pill" x="1088" y="52" width="290" height="36" rx="18"/>
  <text class="t m" x="1106" y="75">Wallet • BNB • SAFE</text>

  <rect class="panel" x="42" y="120" width="520" height="742" rx="26"/>
  <rect class="panel" x="586" y="120" width="812" height="742" rx="26"/>

  <text class="t h2" x="72" y="160">Paramètres</text>
  <rect class="pill" x="72" y="182" width="460" height="46" rx="23"/>
  <text class="t m" x="92" y="210">From • BNB • 1.00</text>
  <rect class="pill" x="72" y="238" width="460" height="46" rx="23"/>
  <text class="t m" x="92" y="266">To • TOKEN</text>
  <rect class="pill" x="72" y="296" width="220" height="40" rx="20"/>
  <rect class="pill" x="312" y="296" width="220" height="40" rx="20"/>
  <text class="t m" x="92" y="322">SAFE</text>
  <text class="t m" x="332" y="322">0.5%</text>
  <rect class="card" x="72" y="350" width="460" height="50" rx="25"/>
  <text class="t h2" x="92" y="382">Obtenir des quotes</text>

  <text class="t h2" x="72" y="444">Receipt</text>
  <rect class="card" x="72" y="456" width="460" height="188" rx="22"/>
  <rect class="pill" x="92" y="484" width="120" height="28" rx="14"/>
  <rect class="pill" x="92" y="522" width="180" height="28" rx="14"/>
  <rect class="pill" x="92" y="560" width="150" height="28" rx="14"/>
  <text class="t m" x="108" y="504">Tax: OK</text>
  <text class="t m" x="108" y="542">Sell: UNC.</text>
  <text class="t m" x="108" y="580">Liq: OK</text>

  <text class="t h2" x="616" y="160">Comparer</text>
  <rect class="card" x="616" y="182" width="380" height="154" rx="22"/>
  <rect class="card" x="1016" y="182" width="352" height="154" rx="22"/>
  <text class="t h2" x="646" y="214">BEQ</text>
  <text class="t m num" x="646" y="244">Out 123,456.78</text>
  <rect class="pill" x="646" y="260" width="72" height="26" rx="13"/>
  <rect class="pill" x="724" y="260" width="108" height="26" rx="13"/>
  <text class="t m" x="668" y="279">OK</text>
  <text class="t m" x="746" y="279">High conf</text>

  <text class="t h2" x="1046" y="214">Raw</text>
  <text class="t m num" x="1046" y="244">Out 126,900.12</text>
  <rect class="pill" x="1046" y="260" width="96" height="26" rx="13"/>
  <text class="t m" x="1062" y="279">Best out</text>

  <rect class="pill" x="616" y="354" width="752" height="44" rx="22"/>
  <text class="t m" x="646" y="382">All quotes • Providers • DEX direct</text>

  <rect class="card" x="616" y="414" width="752" height="66" rx="22"/>
  <rect class="card" x="616" y="490" width="752" height="66" rx="22"/>
  <rect class="card" x="616" y="566" width="752" height="66" rx="22"/>
  <rect class="card" x="616" y="642" width="752" height="66" rx="22"/>
  <text class="t m" x="646" y="454">Provider • Out • Fees • Risk • Open</text>
  <text class="t m" x="646" y="530">Row</text>
  <text class="t m" x="646" y="606">Row</text>
  <text class="t m" x="646" y="682">Row</text>
</svg>
