<svg xmlns="http://www.w3.org/2000/svg" width="1440" height="900" viewBox="0 0 1440 900">
  <defs>
    <style>
      .s{stroke:#9ca3af;stroke-width:2;fill:#ffffff}
      .t{font-family:ui-sans-serif,system-ui,-apple-system,Segoe UI,Roboto,Arial;font-size:16px;fill:#111827}
      .m{font-size:13px;fill:#6b7280}
      .h{font-size:20px;font-weight:600}
      .k{fill:#f9fafb;stroke:#e5e7eb}
    </style>
  </defs>

  <!-- Top bar -->
  <rect x="24" y="20" width="1392" height="72" rx="12" class="k" />
  <text x="48" y="62" class="t h">SwapPilot — Wireframe B (Trading Terminal Light)</text>

  <!-- Left sidebar -->
  <rect x="24" y="112" width="280" height="764" rx="14" class="k" />
  <text x="48" y="150" class="t h">Terminal</text>
  <rect x="48" y="180" width="232" height="44" rx="12" class="s" />
  <text x="62" y="208" class="m">Search token / pair</text>
  <rect x="48" y="236" width="232" height="56" rx="12" class="s" />
  <text x="62" y="270" class="m">From</text>
  <rect x="48" y="304" width="232" height="56" rx="12" class="s" />
  <text x="62" y="338" class="m">To</text>
  <rect x="48" y="372" width="232" height="44" rx="12" class="s" />
  <text x="62" y="400" class="m">Amount</text>
  <rect x="48" y="430" width="232" height="44" rx="12" class="s" />
  <text x="62" y="458" class="m">Mode + Slippage</text>
  <rect x="48" y="490" width="232" height="52" rx="12" class="s" />
  <text x="62" y="522" class="m">Fetch quotes</text>

  <!-- Main content -->
  <rect x="320" y="112" width="1096" height="410" rx="14" class="k" />
  <text x="344" y="150" class="t h">Market / Preview</text>
  <rect x="344" y="176" width="1048" height="320" rx="12" class="s" />
  <text x="360" y="214" class="m">Chart / depth / summary placeholder</text>

  <rect x="320" y="536" width="1096" height="340" rx="14" class="k" />
  <text x="344" y="574" class="t h">Orderbook des quotes</text>
  <text x="344" y="600" class="m">Table dense: Provider, Out, Fees, Risk, Confidence, Deep‑link</text>
  <rect x="344" y="620" width="1048" height="62" rx="12" class="s" />
  <rect x="344" y="692" width="1048" height="62" rx="12" class="s" />
  <rect x="344" y="764" width="1048" height="62" rx="12" class="s" />
</svg>
