<svg xmlns="http://www.w3.org/2000/svg" width="390" height="844" viewBox="0 0 390 844">
  <defs>
    <style>
      .s{stroke:#9ca3af;stroke-width:2;fill:#ffffff}
      .t{font-family:ui-sans-serif,system-ui,-apple-system,Segoe UI,Roboto,Arial;font-size:14px;fill:#111827}
      .m{font-size:12px;fill:#6b7280}
      .h{font-size:16px;font-weight:600}
      .k{fill:#f9fafb;stroke:#e5e7eb}
    </style>
  </defs>

  <rect x="14" y="16" width="362" height="56" rx="14" class="k" />
  <text x="28" y="50" class="t h">Wireframe C</text>
  <text x="160" y="50" class="m">Receipt‑first</text>

  <rect x="14" y="84" width="362" height="254" rx="14" class="k" />
  <text x="28" y="118" class="t h">Route</text>
  <rect x="28" y="136" width="334" height="90" rx="12" class="s" />
  <text x="42" y="170" class="m">BEQ recommandé</text>
  <rect x="28" y="236" width="334" height="74" rx="12" class="s" />
  <text x="42" y="280" class="m">Alternative</text>

  <rect x="14" y="352" width="362" height="476" rx="14" class="k" />
  <text x="28" y="386" class="t h">Receipt</text>
  <rect x="28" y="404" width="334" height="110" rx="12" class="s" />
  <text x="42" y="440" class="m">Résumé</text>
  <rect x="28" y="526" width="334" height="170" rx="12" class="s" />
  <text x="42" y="566" class="m">Signals (OK/UNCERTAIN/FAIL)</text>
  <rect x="28" y="708" width="334" height="80" rx="12" class="s" />
  <text x="42" y="756" class="m">CTA Deep‑link</text>
</svg>
